<svg width="351" height="737" viewBox="0 0 351 737" fill="none" xmlns="http://www.w3.org/2000/svg">
<ellipse cx="171.5" cy="138" rx="131.5" ry="128" fill="#FFDA7B"/>
<rect x="51.4453" y="76.7822" width="45.7953" height="65.5459" fill="#6F6D6D"/>
<rect width="13.993" height="96.4637" rx="4" transform="matrix(-1 0 0 1 94.7227 160.878)" fill="#EED0C8"/>
<path d="M53.9978 47.7192C53.9978 62.4041 65.1037 74.3086 78.8036 74.3086C92.5034 74.3086 103.609 62.4041 103.609 47.7192C103.609 33.0343 92.5034 21.1299 78.8036 21.1299C65.1037 21.1299 53.9978 33.0343 53.9978 47.7192Z" fill="#454444"/>
<rect width="8.65482" height="51.576" rx="3" transform="matrix(-1 0 0 1 99.5664 76.7827)" fill="white"/>
<path d="M83.2763 256.009C83.2763 259.987 92.6731 265.999 96.2581 265.999C99.8431 265.999 96.2586 259.987 96.2586 256.009C96.2586 252.032 93.3524 248.807 89.7675 248.807C86.1825 248.807 83.2763 252.032 83.2763 256.009Z" fill="#5E5E5E"/>
<rect width="13.993" height="96.4637" rx="6" transform="matrix(-1 0 0 1 70.5547 160.878)" fill="#EED0C8"/>
<path d="M57.6347 41.9229C57.6347 53.4066 67.094 62.7159 78.7627 62.7159C90.4313 62.7159 99.8906 53.4066 99.8906 41.9229C99.8906 30.4392 90.4313 21.1299 78.7627 21.1299C67.094 21.1299 57.6347 30.4392 57.6347 41.9229Z" fill="#454444"/>
<rect width="8.65482" height="51.576" rx="3" transform="matrix(-1 0 0 1 56.293 75.5459)" fill="white"/>
<rect width="7.91998" height="56.3635" rx="3" transform="matrix(0.191331 -0.981526 -0.979823 -0.199868 102.863 136.632)" fill="#EED0C8"/>
<rect width="8.0344" height="55.6219" rx="3" transform="matrix(0.742414 0.669942 0.704561 -0.709644 90.8867 126.147)" fill="#EED0C8"/>
<path d="M85.8008 75.5459H65.4473V94.3832L75.191 101.517L85.8008 94.3832V75.5459Z" fill="white"/>
<path d="M69.0868 61.9046C69.0868 75.6471 70.8806 80.8373 75.9262 80.8373C80.9717 80.8373 82.5155 73.267 82.5155 59.5245C82.5155 45.782 83.4179 44.5947 78.3723 44.5947C73.3268 44.5947 69.0868 48.1621 69.0868 61.9046Z" fill="#EED0C8"/>
<path d="M70.3602 56.3294C70.3602 70.0719 72.154 75.2621 77.1996 75.2621C82.2452 75.2621 83.7889 67.6918 83.7889 53.9493C83.7889 40.2068 84.6913 39.0195 79.6458 39.0195C74.6002 39.0195 70.3602 42.5869 70.3602 56.3294Z" fill="#D6BAB3"/>
<path d="M66.1586 52.958C66.1586 67.7135 70.8679 66.0843 83.5955 73.2864C94.5414 67.2459 100.395 65.158 100.395 50.4024C100.395 35.6469 102.696 34.3721 89.832 34.3721C76.9684 34.3721 66.1586 38.2025 66.1586 52.958Z" fill="#EED0C8"/>
<ellipse cx="64.8105" cy="58.8495" rx="1.90814" ry="4.3285" fill="#EABC19"/>
<path d="M57.5693 256.009C57.5693 259.987 66.9661 265.999 70.5511 265.999C74.1361 265.999 70.5515 259.987 70.5515 256.009C70.5515 252.032 67.6454 248.807 64.0604 248.807C60.4754 248.807 57.5693 252.032 57.5693 256.009Z" fill="#565454"/>
<rect x="51.4453" y="193.033" width="58.1256" height="45.7953" transform="rotate(-90 51.4453 193.033)" fill="#151515"/>
<rect x="75.5664" y="138.449" width="145.071" height="54.793" rx="5" fill="#8E6D5B"/>
<rect x="113.781" y="66.8887" width="27.986" height="50.7053" fill="#837B7B"/>
<ellipse cx="24.515" cy="290.578" rx="24.515" ry="24.4225" fill="#9B2A2A"/>
<ellipse cx="106.094" cy="10.0563" rx="10.0944" ry="10.0563" fill="#F79797"/>
<ellipse cx="311.484" cy="133.986" rx="24.515" ry="24.4225" fill="#D17F7F"/>
<rect x="151.445" y="619.448" width="7.0774" height="68.0423" rx="3" transform="rotate(-26.1352 151.445 619.448)" fill="#D9D9D9"/>
<path fill-rule="evenodd" clip-rule="evenodd" d="M138.239 584.496C145.549 580.909 155.417 586.032 160.278 595.94C165.139 605.847 163.153 616.786 155.843 620.373C148.532 623.96 138.665 618.837 133.804 608.929C128.942 599.022 130.928 588.083 138.239 584.496Z" fill="#D9D9D9"/>
<ellipse cx="149.892" cy="607.578" rx="4.42338" ry="4.14892" transform="rotate(-26.1352 149.892 607.578)" fill="#BFBDBD"/>
<rect x="291.773" y="505.879" width="6.36735" height="67.6864" rx="3" transform="rotate(14.1192 291.773 505.879)" fill="#D9D9D9"/>
<path fill-rule="evenodd" clip-rule="evenodd" d="M286.452 490.921C285.63 492.223 284.993 493.686 284.593 495.277C282.703 502.793 286.815 510.305 293.778 512.057C300.74 513.808 307.917 509.135 309.808 501.619C310.208 500.029 310.339 498.438 310.232 496.903L286.452 490.921Z" fill="#D9D9D9"/>
<rect x="288.688" y="479" width="5.83673" height="15.9586" rx="2.91837" transform="rotate(14.1192 288.688 479)" fill="#D9D9D9"/>
<rect x="301.418" y="482.77" width="5.83673" height="15.9586" rx="2.91837" transform="rotate(14.1192 301.418 482.77)" fill="#D9D9D9"/>
<rect x="295.242" y="481.216" width="5.83673" height="15.9586" rx="2.91837" transform="rotate(14.1192 295.242 481.216)" fill="#D9D9D9"/>
<rect x="308.242" y="483.918" width="5.83673" height="15.9586" rx="2.91837" transform="rotate(14.1192 308.242 483.918)" fill="#D9D9D9"/>
<ellipse cx="281" cy="669.5" rx="70" ry="67.5" fill="#E2E2E2"/>
<ellipse cx="280.999" cy="669.5" rx="46.6667" ry="45" fill="#D9D9D9"/>
</svg>
